<?xml version="1.0" standalone="no"?>
<!DOCTYPE svg PUBLIC "-//W3C//DTD SVG 20010904//EN"
 "http://www.w3.org/TR/2001/REC-SVG-20010904/DTD/svg10.dtd">
<svg version="1.0" xmlns="http://www.w3.org/2000/svg"
 width="700.000000pt" height="700.000000pt" viewBox="0 0 700.000000 700.000000"
 preserveAspectRatio="xMidYMid meet">
<metadata>
Created by potrace 1.14, written by Peter Selinger 2001-2017
</metadata>
<g transform="translate(0.000000,700.000000) scale(0.100000,-0.100000)"
fill="#000000" stroke="none">
<path d="M1677 6699 c-118 -28 -204 -129 -214 -248 -2 -31 -5 -117 -6 -191
l-2 -135 -255 -1 c-236 -1 -260 -3 -320 -23 -121 -42 -227 -146 -272 -267
l-22 -59 -1 -2405 c-2 -1899 1 -2414 11 -2448 6 -23 10 -42 8 -42 -16 0 62
-116 111 -166 67 -68 143 -109 228 -122 61 -10 2768 -8 2806 1 52 14 148 66
188 103 103 95 144 198 147 364 l1 105 1155 1 c635 1 1160 2 1166 3 7 1 10
651 10 2186 l0 2185 -25 1 c-14 0 -539 1 -1166 2 l-1140 2 -2 100 c-2 168 -37
258 -135 355 -58 57 -149 105 -223 117 -27 5 -155 8 -282 8 l-233 0 -1 160 c0
88 -3 174 -5 190 -14 90 -106 193 -196 220 -42 12 -150 14 -671 14 -342 -1
-639 -5 -660 -10z m1964 -1018 c1 -3 3 -127 4 -276 2 -148 3 -277 4 -285 1
-14 124 -16 1166 -15 l1165 0 0 -1750 0 -1750 -1167 -1 -1168 0 0 -289 0 -290
-1312 -3 -1313 -2 0 2334 0 2334 1310 -1 c720 0 1311 -3 1311 -6z"/>
<path d="M2770 4448 l0 -218 220 0 220 0 0 219 0 218 -220 0 -220 -1 0 -218z"/>
<path d="M3939 4636 c-1 -36 -1 -387 0 -398 1 -5 99 -8 219 -8 l217 0 -1 213
c-1 116 -2 215 -3 218 0 3 -98 6 -216 6 l-215 0 -1 -31z"/>
<path d="M5109 4666 c-1 -1 -2 -99 -3 -218 l-2 -218 218 0 218 0 1 25 c0 14 0
81 0 150 0 69 0 156 0 194 l-1 68 -215 0 c-118 0 -216 -1 -216 -1z"/>
<path d="M2772 2263 l3 -218 218 -2 217 -1 0 219 0 219 -220 0 -220 0 2 -217z"/>
<path d="M3939 2453 c-1 -34 -1 -383 0 -399 1 -9 61 -12 218 -10 l218 1 0 215
0 215 -217 3 -218 2 -1 -27z"/>
<path d="M5106 2268 c1 -117 2 -216 3 -219 0 -4 98 -7 216 -7 l215 0 1 66 c0
94 0 247 0 315 l-1 57 -218 0 -218 0 2 -212z"/>
</g>
</svg>
