<svg xmlns="http://www.w3.org/2000/svg" data-name="Layer 1" viewBox="0 0 100 125" x="0px" y="0px"><title>DrawArtboard 3</title><path fill="#FFFFFF" d="M79.47,28.11l-.69,0-1.47.08c-.91.06-1.81.16-2.71.27l-1.84.23h-.14c-.87,0-1.73-.06-2.59-.06s-2,0-2.91,0c-.48,0-1,.05-1.42.1l-.66.07-.45.05a1,1,0,0,0-.45.13,1.73,1.73,0,0,0-.3.25.65.65,0,0,0,.28,1.08l.45.12a2.53,2.53,0,0,0,.48.08,6.69,6.69,0,0,0,1,0c.72,0,1.44,0,2.16-.09s1.16-.12,1.73-.18c1-.1,1.89-.22,2.83-.33l.43,0a21,21,0,0,1,2.1.15,12.29,12.29,0,0,1,1.21.23c-.69.28-1.37.56-2.06.86s-1.58.7-2.35,1.08c-.95.45-1.88.92-2.81,1.38-.73.38-1.46.76-2.19,1.12l-2.68,1.31-.87.44c-.14.07-.29.13-.42.21l-1.39.78c-.86.48-1.7,1-2.55,1.47s-1.64,1-2.45,1.51c-1.51.93-3,1.94-4.44,2.93-.74.5-1.5,1-2.23,1.5l-2.88,2c-.23.16-.44.34-.66.51L45,48.77l-1.84,1.47-2.49,2c-.32.26-.61.53-.92.79l-1.52,1.32c-.63.54-1.24,1.09-1.85,1.64l-1.88,1.7L32,60.08c-.73.67-1.43,1.35-2.14,2C28.55,63.32,27.26,64.5,26,65.7c-.69.66-1.38,1.32-2.05,2s-1.36,1.38-2,2.08c-.42.43-.84.87-1.24,1.31-.61.68-1.22,1.36-1.82,2a.65.65,0,1,0,.92.91c.42-.49.85-1,1.28-1.45.29-.32.57-.64.86-.95.63-.66,1.25-1.33,1.89-2s1.31-1.34,2-2l2-1.92c1.56-1.45,3.11-2.92,4.65-4.39.61-.58,1.24-1.14,1.86-1.71L36.13,58l2.54-2.27c.76-.68,1.53-1.33,2.3-2,.61-.53,1.23-1,1.85-1.55s1.35-1.11,2-1.65c1-.77,1.95-1.54,2.91-2.32.87-.6,1.73-1.21,2.59-1.82.67-.48,1.36-.94,2-1.4l2.16-1.45c.79-.52,1.57-1.07,2.37-1.57,1.63-1,3.26-2,4.94-3l1.68-.94c.3-.17.61-.32.92-.48l2.79-1.37c1.42-.7,2.82-1.43,4.23-2.14.76-.38,1.54-.74,2.31-1.09s1.39-.63,2.09-.93l-.15.06L77,31.61c.26-.1.52-.2.76-.32a1.15,1.15,0,0,0,.27-.14.84.84,0,0,0,.28-.31,1,1,0,0,0,.1-.41.9.9,0,0,0-.23-.56,1.42,1.42,0,0,0-.46-.38l.55,0,.56,0c.18,0,.36,0,.54,0a6.82,6.82,0,0,1-.23.77c-.09.26-.19.51-.29.77h0l-.06.14,0-.07c-.38.88-.79,1.75-1.2,2.62s-.81,1.82-1.2,2.73c-.32.75-.65,1.5-1,2.25s-.78,1.68-1.17,2.52a.72.72,0,0,0-.06.5.6.6,0,0,0,.3.38.65.65,0,0,0,.49.07.62.62,0,0,0,.39-.3c.42-.92.86-1.82,1.27-2.75s.7-1.61,1-2.42.84-1.9,1.27-2.84l.58-1.26c.12-.26.24-.52.35-.78s.26-.6.37-.91c.06-.15.1-.3.15-.45s.13-.37.18-.56a1.46,1.46,0,0,0-.39-1.48,1,1,0,0,0-.7-.22h0m-.14,1.09,0,.07,0-.07m0,.25v0m-14.63.76,0,0,0,0m-.1,0h0m14.18.8,0-.07h0l0,.07"/></svg>