<svg width="90" height="90" viewBox="0 0 90 90" fill="none" xmlns="http://www.w3.org/2000/svg">
<path d="M87.0003 21.5311V68.4691C87.0003 78.7071 78.6722 87.0471 68.4222 87.0471H21.4842C11.2462 87.0471 2.90625 78.7071 2.90625 68.4691V21.5311C2.90625 11.2931 11.2462 2.95312 21.4842 2.95312H68.4222C78.6722 2.95313 87.0003 11.2931 87.0003 21.5311Z" fill="#FFFEFA"/>
<path d="M68.469 1H21.531C10.211 1 1 10.2109 1 21.531V68.461C1 79.781 10.2109 88.992 21.531 88.992H68.461C79.781 88.992 88.992 79.7811 88.992 68.461L88.9881 21.531C88.9881 10.211 79.7772 1 68.4571 1H68.469ZM87.047 68.469C87.047 78.707 78.7189 87.047 68.469 87.047L21.531 87.0509C11.293 87.0509 2.953 78.7228 2.953 68.4729L2.94909 21.5319C2.94909 11.2939 11.2772 2.95391 21.5271 2.95391H68.4571C78.6951 2.95391 87.0351 11.282 87.0351 21.5319V68.4619L87.047 68.469Z" stroke="#8C3434"/>
<path d="M67.4891 17.6211H22.5121C19.8131 17.6211 17.6211 19.8121 17.6211 22.5121V67.4921C17.6211 70.1911 19.8121 72.3831 22.5121 72.3831H67.4921C70.1911 72.3831 72.3831 70.1921 72.3831 67.4921V22.5121C72.3831 19.8131 70.1921 17.6211 67.4921 17.6211H67.4891ZM70.4191 67.4921C70.4191 69.1131 69.0991 70.4221 67.4891 70.4221H22.5121C20.8911 70.4221 19.5821 69.1021 19.5821 67.4921V22.5121C19.5821 20.8911 20.9021 19.5821 22.5121 19.5821H67.4921C69.1131 19.5821 70.4221 20.9021 70.4221 22.5121L70.4191 67.4921Z" stroke="#8C3434"/>
</svg>
