<svg width="90" height="90" viewBox="0 0 90 90" fill="none" xmlns="http://www.w3.org/2000/svg">
<path d="M87.0003 21.5311V68.4691C87.0003 78.7071 78.6722 87.0471 68.4222 87.0471H21.4842C11.2462 87.0471 2.90625 78.7071 2.90625 68.4691V21.5311C2.90625 11.2931 11.2462 2.95312 21.4842 2.95312H68.4222C78.6722 2.95313 87.0003 11.2931 87.0003 21.5311Z" fill="#FFFEFA"/>
<path d="M68.469 1H21.531C10.211 1 1 10.2109 1 21.531V68.461C1 79.781 10.2109 88.992 21.531 88.992H68.461C79.781 88.992 88.992 79.7811 88.992 68.461L88.9881 21.531C88.9881 10.211 79.7772 1 68.4571 1H68.469ZM87.047 68.469C87.047 78.707 78.7189 87.047 68.469 87.047L21.531 87.0509C11.293 87.0509 2.953 78.7228 2.953 68.4729L2.94909 21.5319C2.94909 11.2939 11.2772 2.95391 21.5271 2.95391H68.4571C78.6951 2.95391 87.0351 11.282 87.0351 21.5319V68.4619L87.047 68.469Z" stroke="#8C3434"/>
<path d="M68.1209 41.2189L26.7109 18.2499C25.1718 17.3983 23.2812 17.4218 21.7695 18.3085C20.3984 19.1171 19.5781 20.5077 19.5781 22.0194V67.9684C19.5781 69.4879 20.3984 70.8786 21.7695 71.6793C22.5508 72.1402 23.4179 72.3707 24.3007 72.3707C25.1796 72.3707 25.9726 72.1597 26.7109 71.7496L68.1209 48.7696C69.5623 47.9688 70.4217 46.5587 70.4217 44.9884C70.4217 43.4181 69.5623 42.0079 68.1209 41.2072V41.2189ZM67.1717 47.0587L25.7617 70.0387C24.832 70.5582 23.6836 70.5387 22.7617 69.9996C21.9805 69.5387 21.5312 68.8004 21.5312 67.9684V22.0194C21.5312 21.1913 21.9804 20.4491 22.7617 19.9882C23.2305 19.707 23.7617 19.5663 24.2929 19.5663C24.8241 19.5663 25.3046 19.6952 25.7617 19.9452L67.1717 42.9252C67.992 43.3862 68.4725 44.1361 68.4725 44.9955C68.4725 45.8549 68.0038 46.6049 67.1717 47.0658V47.0587Z" stroke="#8C3434"/>
</svg>
