<svg width="65" height="65" viewBox="0 0 65 65" fill="none" xmlns="http://www.w3.org/2000/svg">
<mask id="mask0_649_92" style="mask-type:alpha" maskUnits="userSpaceOnUse" x="0" y="0" width="65" height="65">
<rect width="65" height="65" fill="#D9D9D9"/>
</mask>
<g mask="url(#mask0_649_92)">
<path d="M9.47919 59.5834C8.362 59.5834 7.40573 59.1855 6.61038 58.3897C5.81459 57.5943 5.41669 56.6381 5.41669 55.5209V12.1875C5.41669 11.0704 5.81459 10.1139 6.61038 9.31806C7.40573 8.52271 8.362 8.12504 9.47919 8.12504H13.5417V5.41671C13.5417 4.64935 13.8012 4.00612 14.3203 3.48702C14.8394 2.96792 15.4827 2.70837 16.25 2.70837H27.0834C27.8507 2.70837 28.4939 2.96792 29.013 3.48702C29.5321 4.00612 29.7917 4.64935 29.7917 5.41671V8.12504H33.8542C34.9714 8.12504 35.9279 8.52271 36.7237 9.31806C37.519 10.1139 37.9167 11.0704 37.9167 12.1875V13.5417H59.5834V54.1667H37.9167V55.5209C37.9167 56.6381 37.519 57.5943 36.7237 58.3897C35.9279 59.1855 34.9714 59.5834 33.8542 59.5834H9.47919ZM9.47919 55.5209H33.8542V50.1042H55.5209V17.6042H33.8542V12.1875H9.47919V55.5209ZM25.7292 46.0417H29.7917V41.9792H25.7292V46.0417ZM25.7292 25.7292H29.7917V21.6667H25.7292V25.7292ZM36.5625 46.0417H40.625V41.9792H36.5625V46.0417ZM36.5625 25.7292H40.625V21.6667H36.5625V25.7292ZM47.3959 46.0417H51.4584V41.9792H47.3959V46.0417ZM47.3959 25.7292H51.4584V21.6667H47.3959V25.7292Z" fill="#8C3434" fill-opacity="0.65"/>
</g>
</svg>
