<svg width="40" height="27" viewBox="0 0 40 27" fill="none" xmlns="http://www.w3.org/2000/svg">
<path d="M12.9177 12.9565C22.6685 12.9565 22.6685 26 12.9177 26C7.41733 26 1 26 1 26V12.9565M12.9177 12.9565C7.41733 12.9565 1 12.9565 1 12.9565M12.9177 12.9565C22.6685 12.9565 22.6685 1.00002 12.9177 1C8.58396 1 1 1 1 1V12.9565" stroke="#8C3434" stroke-linecap="round" stroke-linejoin="round"/>
<path d="M31.7692 8.69232C27.5209 8.69232 24.0769 12.5667 24.0769 17.3462H39.4615C39.4615 12.5667 36.0175 8.69232 31.7692 8.69232Z" stroke="#8C3434" stroke-linecap="round" stroke-linejoin="round"/>
<path d="M24.0769 17.3462C24.0769 22.1256 27.5209 26 31.7692 26C37.0677 26 38.5 22.1539 38.5 22.1539" stroke="#8C3434" stroke-linecap="round" stroke-linejoin="round"/>
<path d="M36.5769 2.92307H26.9615" stroke="#8C3434" stroke-linecap="round" stroke-linejoin="round"/>
</svg>
