<svg width="30" height="30" viewBox="0 0 30 30" fill="none" xmlns="http://www.w3.org/2000/svg">
<path d="M15 21.2222C18.4364 21.2222 21.2222 18.4364 21.2222 15C21.2222 11.5636 18.4364 8.7778 15 8.7778C11.5636 8.7778 8.7778 11.5636 8.7778 15C8.7778 18.4364 11.5636 21.2222 15 21.2222Z" stroke="#8C3434" stroke-linecap="round" stroke-linejoin="round"/>
<path d="M1 21.2222V8.77778C1 4.48224 4.48224 1 8.77778 1H21.2222C25.5177 1 29 4.48224 29 8.77778V21.2222C29 25.5177 25.5177 29 21.2222 29H8.77778C4.48224 29 1 25.5177 1 21.2222Z" stroke="#8C3434"/>
<path d="M23.5555 6.45993L23.571 6.44272" stroke="#8C3434" stroke-linecap="round" stroke-linejoin="round"/>
</svg>
