<svg xmlns="http://www.w3.org/2000/svg" xmlns:xlink="http://www.w3.org/1999/xlink" version="1.1" x="0px" y="0px" viewBox="0 0 64 80" style="enable-background:new 0 0 64 64;" xml:space="preserve"><path fill="#FFFFFF" d="M33.41,32l16.57-16.57c0.39-0.39,0.39-1.02,0-1.41s-1.02-0.39-1.41,0L32,30.59L15.43,14.02c-0.39-0.39-1.02-0.39-1.41,0  s-0.39,1.02,0,1.41L30.59,32L14.02,48.57c-0.39,0.39-0.39,1.02,0,1.41c0.2,0.2,0.45,0.29,0.71,0.29s0.51-0.1,0.71-0.29L32,33.41  l16.57,16.57c0.2,0.2,0.45,0.29,0.71,0.29s0.51-0.1,0.71-0.29c0.39-0.39,0.39-1.02,0-1.41L33.41,32z"/></svg>